<?xml version="1.0" standalone="no"?>
<!DOCTYPE svg PUBLIC "-//W3C//DTD SVG 20010904//EN"
 "http://www.w3.org/TR/2001/REC-SVG-20010904/DTD/svg10.dtd">
<svg version="1.0" xmlns="http://www.w3.org/2000/svg"
 width="512.000000pt" height="512.000000pt" viewBox="0 0 512.000000 512.000000"
 preserveAspectRatio="xMidYMid meet">

<g transform="translate(0.000000,512.000000) scale(0.100000,-0.100000)"
fill="#000000" stroke="none">
<path d="M25 5095 l-25 -24 0 -911 0 -911 25 -24 24 -25 576 0 575 0 0 -175
c0 -173 0 -176 25 -200 16 -16 35 -25 56 -25 29 0 55 22 234 200 l201 200
1037 0 1038 0 24 25 25 24 0 911 0 911 -25 24 -24 25 -1871 0 -1871 0 -24 -25z
m3655 -935 l0 -800 -1017 0 -1016 0 -144 -142 -143 -142 0 117 c0 112 -1 119
-25 142 l-24 25 -576 0 -575 0 0 800 0 800 1760 0 1760 0 0 -800z"/>
<path d="M480 4160 l0 -560 80 0 80 0 0 240 0 240 160 0 160 0 0 -240 0 -240
80 0 80 0 0 560 0 560 -80 0 -80 0 0 -240 0 -240 -160 0 -160 0 0 240 0 240
-80 0 -80 0 0 -560z"/>
<path d="M1280 4640 l0 -80 120 0 120 0 0 -480 0 -480 80 0 80 0 0 480 0 480
120 0 120 0 0 80 0 80 -320 0 -320 0 0 -80z"/>
<path d="M2105 4695 l-25 -24 0 -536 0 -535 80 0 80 0 2 293 3 292 44 -118
c45 -122 64 -147 111 -147 47 0 66 25 111 147 l44 118 3 -292 2 -293 80 0 80
0 0 535 0 536 -25 24 c-31 32 -78 33 -108 3 -13 -13 -56 -116 -102 -240 -44
-120 -82 -218 -85 -218 -3 0 -43 102 -89 225 -56 152 -90 230 -105 240 -31 22
-74 18 -101 -10z"/>
<path d="M2882 4242 l3 -479 30 -49 c19 -30 49 -60 79 -79 l49 -30 199 -3 198
-4 0 81 0 81 -175 0 c-173 0 -176 0 -200 25 l-25 24 0 456 0 455 -80 0 -81 0
3 -478z"/>
<path d="M4000 4160 l0 -80 221 0 c259 0 285 -5 349 -70 53 -53 70 -99 70
-193 l0 -66 -53 -24 c-66 -30 -118 -81 -154 -150 -24 -45 -28 -64 -28 -137 0
-73 4 -92 28 -137 36 -69 88 -120 154 -150 44 -20 53 -29 53 -50 0 -54 -25
-109 -70 -153 -27 -27 -61 -50 -86 -58 -32 -9 -355 -12 -1383 -12 l-1341 0 0
-80 0 -80 1354 0 c1327 0 1355 0 1417 20 119 38 209 127 248 248 12 34 21 80
21 101 0 37 2 39 64 70 68 33 106 72 147 151 34 66 34 196 0 260 -42 79 -79
118 -147 151 l-64 32 0 78 c0 188 -102 337 -269 389 -56 18 -91 20 -297 20
l-234 0 0 -80z m790 -582 c48 -25 90 -89 90 -138 0 -49 -42 -113 -90 -137 -24
-13 -56 -23 -70 -23 -14 0 -46 10 -70 23 -48 24 -90 88 -90 137 0 49 42 113
90 138 24 12 56 22 70 22 14 0 46 -10 70 -22z"/>
<path d="M588 2865 c-84 -23 -142 -57 -209 -124 -88 -89 -139 -200 -139 -308
0 -40 -1 -42 -53 -66 -66 -30 -118 -81 -154 -150 -24 -45 -28 -64 -28 -137 0
-73 4 -92 28 -137 36 -69 88 -120 154 -150 52 -24 53 -26 53 -66 0 -108 51
-219 139 -308 112 -112 196 -139 431 -139 l150 0 0 79 0 79 -167 4 c-159 3
-171 5 -218 30 -95 50 -162 144 -172 242 l-5 52 65 32 c69 34 107 73 148 152
34 66 34 196 0 260 -42 79 -79 118 -147 151 -59 29 -64 34 -64 64 0 71 31 137
95 200 82 83 122 95 316 95 l149 0 0 80 0 80 -162 -1 c-100 0 -181 -6 -210
-14z m-198 -647 c48 -25 90 -89 90 -138 0 -49 -42 -113 -90 -137 -24 -13 -56
-23 -70 -23 -49 0 -113 42 -137 90 -29 56 -29 84 0 140 24 48 88 90 137 90 14
0 46 -10 70 -22z"/>
<path d="M1145 2455 l-25 -24 0 -991 0 -991 25 -24 24 -25 896 0 895 0 0 -175
c0 -173 0 -176 25 -200 16 -16 35 -25 56 -25 29 0 55 22 234 200 l201 200 797
0 798 0 24 25 25 24 0 991 0 991 -25 24 -24 25 -1951 0 -1951 0 -24 -25z
m3815 -1015 l0 -880 -777 0 -776 0 -144 -142 -143 -142 0 117 c0 112 -1 119
-25 142 l-24 25 -896 0 -895 0 0 880 0 880 1840 0 1840 0 0 -880z"/>
<path d="M2063 2151 c-143 -37 -262 -163 -294 -310 -6 -30 -9 -192 -7 -432 l3
-384 32 -67 c44 -93 100 -151 191 -196 72 -35 81 -37 172 -37 91 0 100 2 172
37 47 24 91 55 117 84 52 55 98 151 107 221 l7 53 -82 0 c-68 0 -81 -3 -81
-16 0 -108 -125 -224 -240 -224 -92 0 -202 80 -228 166 -8 29 -12 147 -12 400
0 340 2 361 21 404 27 60 64 98 124 126 138 66 301 -23 330 -179 l7 -37 80 0
81 0 -7 51 c-18 137 -104 252 -233 316 -42 20 -72 26 -141 29 -48 2 -101 -1
-119 -5z"/>
<path d="M2995 2140 c-171 -56 -284 -226 -273 -406 4 -59 12 -89 41 -148 66
-133 179 -208 338 -224 102 -11 147 -31 198 -88 87 -99 82 -224 -14 -319 -70
-71 -145 -91 -239 -63 -78 23 -166 135 -166 212 0 13 -13 16 -81 16 l-82 0 7
-52 c9 -71 55 -167 107 -222 26 -29 70 -60 117 -84 72 -35 81 -37 172 -37 91
0 100 2 172 37 91 45 147 103 191 196 29 61 32 76 32 163 0 90 -2 99 -37 171
-67 135 -177 209 -338 227 -103 12 -127 20 -174 62 -57 49 -80 102 -80 179 0
137 96 234 234 234 120 0 213 -77 235 -197 l7 -37 81 0 80 0 -6 51 c-15 124
-111 256 -225 311 -87 41 -206 48 -297 18z"/>
<path d="M3985 2151 c-225 -59 -357 -297 -284 -513 54 -161 181 -258 360 -276
102 -11 147 -31 198 -88 87 -99 82 -224 -14 -319 -70 -71 -145 -91 -239 -63
-78 23 -166 135 -166 212 0 13 -13 16 -81 16 l-82 0 7 -52 c9 -71 55 -167 107
-222 26 -29 70 -60 117 -84 72 -35 81 -37 172 -37 91 0 100 2 172 37 91 45
147 103 191 196 29 61 32 76 32 162 0 86 -3 102 -31 160 -70 148 -179 222
-350 240 -162 17 -248 100 -248 240 0 137 96 234 234 234 120 0 213 -77 235
-197 l7 -37 81 0 80 0 -6 51 c-15 124 -111 256 -225 311 -54 25 -80 31 -151
34 -47 2 -99 0 -116 -5z"/>
</g>
</svg>
